<svg id="visual" viewBox="0 0 540 960" width="540" height="960" xmlns="http://www.w3.org/2000/svg" xmlns:xlink="http://www.w3.org/1999/xlink" version="1.1"><rect x="0" y="0" width="540" height="960" fill="#111111"></rect><defs><linearGradient id="grad1_0" x1="0%" y1="100%" x2="100%" y2="0%"><stop offset="30%" stop-color="#323232" stop-opacity="1"></stop><stop offset="70%" stop-color="#323232" stop-opacity="1"></stop></linearGradient></defs><defs><linearGradient id="grad1_1" x1="0%" y1="100%" x2="100%" y2="0%"><stop offset="30%" stop-color="#323232" stop-opacity="1"></stop><stop offset="70%" stop-color="#2b2b2b" stop-opacity="1"></stop></linearGradient></defs><defs><linearGradient id="grad1_2" x1="0%" y1="100%" x2="100%" y2="0%"><stop offset="30%" stop-color="#252525" stop-opacity="1"></stop><stop offset="70%" stop-color="#2b2b2b" stop-opacity="1"></stop></linearGradient></defs><defs><linearGradient id="grad1_3" x1="0%" y1="100%" x2="100%" y2="0%"><stop offset="30%" stop-color="#252525" stop-opacity="1"></stop><stop offset="70%" stop-color="#1e1e1e" stop-opacity="1"></stop></linearGradient></defs><defs><linearGradient id="grad1_4" x1="0%" y1="100%" x2="100%" y2="0%"><stop offset="30%" stop-color="#181818" stop-opacity="1"></stop><stop offset="70%" stop-color="#1e1e1e" stop-opacity="1"></stop></linearGradient></defs><defs><linearGradient id="grad1_5" x1="0%" y1="100%" x2="100%" y2="0%"><stop offset="30%" stop-color="#181818" stop-opacity="1"></stop><stop offset="70%" stop-color="#111111" stop-opacity="1"></stop></linearGradient></defs><defs><linearGradient id="grad2_0" x1="0%" y1="100%" x2="100%" y2="0%"><stop offset="30%" stop-color="#323232" stop-opacity="1"></stop><stop offset="70%" stop-color="#323232" stop-opacity="1"></stop></linearGradient></defs><defs><linearGradient id="grad2_1" x1="0%" y1="100%" x2="100%" y2="0%"><stop offset="30%" stop-color="#2b2b2b" stop-opacity="1"></stop><stop offset="70%" stop-color="#323232" stop-opacity="1"></stop></linearGradient></defs><defs><linearGradient id="grad2_2" x1="0%" y1="100%" x2="100%" y2="0%"><stop offset="30%" stop-color="#2b2b2b" stop-opacity="1"></stop><stop offset="70%" stop-color="#252525" stop-opacity="1"></stop></linearGradient></defs><defs><linearGradient id="grad2_3" x1="0%" y1="100%" x2="100%" y2="0%"><stop offset="30%" stop-color="#1e1e1e" stop-opacity="1"></stop><stop offset="70%" stop-color="#252525" stop-opacity="1"></stop></linearGradient></defs><defs><linearGradient id="grad2_4" x1="0%" y1="100%" x2="100%" y2="0%"><stop offset="30%" stop-color="#1e1e1e" stop-opacity="1"></stop><stop offset="70%" stop-color="#181818" stop-opacity="1"></stop></linearGradient></defs><defs><linearGradient id="grad2_5" x1="0%" y1="100%" x2="100%" y2="0%"><stop offset="30%" stop-color="#111111" stop-opacity="1"></stop><stop offset="70%" stop-color="#181818" stop-opacity="1"></stop></linearGradient></defs><g transform="translate(540, 960)"><path d="M-297 0C-293.5 -43.6 -290 -87.3 -262.4 -108.7C-234.8 -130.1 -183.2 -129.3 -158.4 -158.4C-133.6 -187.4 -135.6 -246.3 -113.7 -274.4C-91.7 -302.5 -45.9 -299.7 0 -297L0 0Z" fill="#151515"></path><path d="M-247.5 0C-244.6 -36.4 -241.6 -72.7 -218.7 -90.6C-195.7 -108.4 -152.7 -107.8 -132 -132C-111.3 -156.2 -113 -205.3 -94.7 -228.7C-76.4 -252.1 -38.2 -249.8 0 -247.5L0 0Z" fill="#1b1b1b"></path><path d="M-198 0C-195.7 -29.1 -193.3 -58.2 -174.9 -72.5C-156.5 -86.7 -122.1 -86.2 -105.6 -105.6C-89.1 -125 -90.4 -164.2 -75.8 -182.9C-61.2 -201.6 -30.6 -199.8 0 -198L0 0Z" fill="#212121"></path><path d="M-148.5 0C-146.7 -21.8 -145 -43.6 -131.2 -54.3C-117.4 -65.1 -91.6 -64.7 -79.2 -79.2C-66.8 -93.7 -67.8 -123.2 -56.8 -137.2C-45.9 -151.2 -22.9 -149.9 0 -148.5L0 0Z" fill="#282828"></path><path d="M-99 0C-97.8 -14.5 -96.7 -29.1 -87.5 -36.2C-78.3 -43.4 -61.1 -43.1 -52.8 -52.8C-44.5 -62.5 -45.2 -82.1 -37.9 -91.5C-30.6 -100.8 -15.3 -99.9 0 -99L0 0Z" fill="#2f2f2f"></path><path d="M-49.5 0C-48.9 -7.3 -48.3 -14.5 -43.7 -18.1C-39.1 -21.7 -30.5 -21.6 -26.4 -26.4C-22.3 -31.2 -22.6 -41.1 -18.9 -45.7C-15.3 -50.4 -7.6 -50 0 -49.5L0 0Z" fill="#323232"></path></g><g transform="translate(0, 0)"><path d="M297 0C227.9 16.4 158.9 32.7 140.4 58.2C122 83.6 154.1 118.1 159.8 159.8C165.5 201.5 144.7 250.3 113.7 274.4C82.6 298.5 41.3 297.7 0 297L0 0Z" fill="#151515"></path><path d="M247.5 0C190 13.6 132.4 27.3 117 48.5C101.6 69.7 128.4 98.4 133.2 133.2C137.9 167.9 120.6 208.6 94.7 228.7C68.8 248.7 34.4 248.1 0 247.5L0 0Z" fill="#1b1b1b"></path><path d="M198 0C152 10.9 105.9 21.8 93.6 38.8C81.3 55.7 102.7 78.8 106.5 106.5C110.3 134.3 96.5 166.9 75.8 182.9C55.1 199 27.5 198.5 0 198L0 0Z" fill="#212121"></path><path d="M148.5 0C114 8.2 79.4 16.4 70.2 29.1C61 41.8 77.1 59.1 79.9 79.9C82.7 100.7 72.4 125.2 56.8 137.2C41.3 149.2 20.7 148.9 0 148.5L0 0Z" fill="#282828"></path><path d="M99 0C76 5.5 53 10.9 46.8 19.4C40.7 27.9 51.4 39.4 53.3 53.3C55.2 67.2 48.2 83.4 37.9 91.5C27.5 99.5 13.8 99.2 0 99L0 0Z" fill="#2f2f2f"></path><path d="M49.5 0C38 2.7 26.5 5.5 23.4 9.7C20.3 13.9 25.7 19.7 26.6 26.6C27.6 33.6 24.1 41.7 18.9 45.7C13.8 49.7 6.9 49.6 0 49.5L0 0Z" fill="#323232"></path></g></svg>