<svg id="visual" viewBox="0 0 1920 1080" width="1920" height="1080" xmlns="http://www.w3.org/2000/svg" xmlns:xlink="http://www.w3.org/1999/xlink" version="1.1"><rect x="0" y="0" width="1920" height="1080" fill="#111111"></rect><defs><linearGradient id="grad1_0" x1="43.8%" y1="100%" x2="100%" y2="0%"><stop offset="14.444444444444446%" stop-color="#323232" stop-opacity="1"></stop><stop offset="85.55555555555554%" stop-color="#323232" stop-opacity="1"></stop></linearGradient></defs><defs><linearGradient id="grad1_1" x1="43.8%" y1="100%" x2="100%" y2="0%"><stop offset="14.444444444444446%" stop-color="#323232" stop-opacity="1"></stop><stop offset="85.55555555555554%" stop-color="#2b2b2b" stop-opacity="1"></stop></linearGradient></defs><defs><linearGradient id="grad1_2" x1="43.8%" y1="100%" x2="100%" y2="0%"><stop offset="14.444444444444446%" stop-color="#252525" stop-opacity="1"></stop><stop offset="85.55555555555554%" stop-color="#2b2b2b" stop-opacity="1"></stop></linearGradient></defs><defs><linearGradient id="grad1_3" x1="43.8%" y1="100%" x2="100%" y2="0%"><stop offset="14.444444444444446%" stop-color="#252525" stop-opacity="1"></stop><stop offset="85.55555555555554%" stop-color="#1e1e1e" stop-opacity="1"></stop></linearGradient></defs><defs><linearGradient id="grad1_4" x1="43.8%" y1="100%" x2="100%" y2="0%"><stop offset="14.444444444444446%" stop-color="#181818" stop-opacity="1"></stop><stop offset="85.55555555555554%" stop-color="#1e1e1e" stop-opacity="1"></stop></linearGradient></defs><defs><linearGradient id="grad1_5" x1="43.8%" y1="100%" x2="100%" y2="0%"><stop offset="14.444444444444446%" stop-color="#181818" stop-opacity="1"></stop><stop offset="85.55555555555554%" stop-color="#111111" stop-opacity="1"></stop></linearGradient></defs><defs><linearGradient id="grad2_0" x1="0%" y1="100%" x2="56.3%" y2="0%"><stop offset="14.444444444444446%" stop-color="#323232" stop-opacity="1"></stop><stop offset="85.55555555555554%" stop-color="#323232" stop-opacity="1"></stop></linearGradient></defs><defs><linearGradient id="grad2_1" x1="0%" y1="100%" x2="56.3%" y2="0%"><stop offset="14.444444444444446%" stop-color="#2b2b2b" stop-opacity="1"></stop><stop offset="85.55555555555554%" stop-color="#323232" stop-opacity="1"></stop></linearGradient></defs><defs><linearGradient id="grad2_2" x1="0%" y1="100%" x2="56.3%" y2="0%"><stop offset="14.444444444444446%" stop-color="#2b2b2b" stop-opacity="1"></stop><stop offset="85.55555555555554%" stop-color="#252525" stop-opacity="1"></stop></linearGradient></defs><defs><linearGradient id="grad2_3" x1="0%" y1="100%" x2="56.3%" y2="0%"><stop offset="14.444444444444446%" stop-color="#1e1e1e" stop-opacity="1"></stop><stop offset="85.55555555555554%" stop-color="#252525" stop-opacity="1"></stop></linearGradient></defs><defs><linearGradient id="grad2_4" x1="0%" y1="100%" x2="56.3%" y2="0%"><stop offset="14.444444444444446%" stop-color="#1e1e1e" stop-opacity="1"></stop><stop offset="85.55555555555554%" stop-color="#181818" stop-opacity="1"></stop></linearGradient></defs><defs><linearGradient id="grad2_5" x1="0%" y1="100%" x2="56.3%" y2="0%"><stop offset="14.444444444444446%" stop-color="#111111" stop-opacity="1"></stop><stop offset="85.55555555555554%" stop-color="#181818" stop-opacity="1"></stop></linearGradient></defs><g transform="translate(1920, 1080)"><path d="M-594 0C-595.7 -85.8 -597.4 -171.6 -548.8 -227.3C-500.2 -283.1 -401.3 -308.8 -332.3 -332.3C-263.4 -355.9 -224.5 -377.1 -174.1 -420.4C-123.7 -463.6 -61.9 -528.8 0 -594L0 0Z" fill="#151515"></path><path d="M-495 0C-496.4 -71.5 -497.8 -143 -457.3 -189.4C-416.8 -235.9 -334.4 -257.4 -277 -277C-219.5 -296.5 -187.1 -314.3 -145.1 -350.3C-103.1 -386.3 -51.6 -440.7 0 -495L0 0Z" fill="#1b1b1b"></path><path d="M-396 0C-397.1 -57.2 -398.3 -114.4 -365.9 -151.5C-333.4 -188.7 -267.5 -205.9 -221.6 -221.6C-175.6 -237.2 -149.7 -251.4 -116.1 -280.2C-82.5 -309.1 -41.2 -352.5 0 -396L0 0Z" fill="#212121"></path><path d="M-297 0C-297.8 -42.9 -298.7 -85.8 -274.4 -113.7C-250.1 -141.5 -200.6 -154.4 -166.2 -166.2C-131.7 -177.9 -112.3 -188.6 -87.1 -210.2C-61.9 -231.8 -30.9 -264.4 0 -297L0 0Z" fill="#282828"></path><path d="M-198 0C-198.6 -28.6 -199.1 -57.2 -182.9 -75.8C-166.7 -94.4 -133.8 -102.9 -110.8 -110.8C-87.8 -118.6 -74.8 -125.7 -58 -140.1C-41.2 -154.5 -20.6 -176.3 0 -198L0 0Z" fill="#2f2f2f"></path><path d="M-99 0C-99.3 -14.3 -99.6 -28.6 -91.5 -37.9C-83.4 -47.2 -66.9 -51.5 -55.4 -55.4C-43.9 -59.3 -37.4 -62.9 -29 -70.1C-20.6 -77.3 -10.3 -88.1 0 -99L0 0Z" fill="#323232"></path></g><g transform="translate(0, 0)"><path d="M594 0C547 58.1 499.9 116.2 481.3 199.4C462.7 282.5 472.6 390.7 420 420C367.5 449.4 252.6 399.9 172.2 415.7C91.8 431.6 45.9 512.8 0 594L0 0Z" fill="#151515"></path><path d="M495 0C455.8 48.4 416.6 96.9 401.1 166.1C385.6 235.4 393.8 325.6 350 350C306.2 374.5 210.5 333.2 143.5 346.5C76.5 359.7 38.3 427.3 0 495L0 0Z" fill="#1b1b1b"></path><path d="M396 0C364.6 38.7 333.3 77.5 320.9 132.9C308.5 188.3 315 260.5 280 280C245 299.6 168.4 266.6 114.8 277.2C61.2 287.7 30.6 341.9 0 396L0 0Z" fill="#212121"></path><path d="M297 0C273.5 29.1 250 58.1 240.7 99.7C231.4 141.3 236.3 195.3 210 210C183.7 224.7 126.3 199.9 86.1 207.9C45.9 215.8 23 256.4 0 297L0 0Z" fill="#282828"></path><path d="M198 0C182.3 19.4 166.6 38.7 160.4 66.5C154.2 94.2 157.5 130.2 140 140C122.5 149.8 84.2 133.3 57.4 138.6C30.6 143.9 15.3 170.9 0 198L0 0Z" fill="#2f2f2f"></path><path d="M99 0C91.2 9.7 83.3 19.4 80.2 33.2C77.1 47.1 78.8 65.1 70 70C61.2 74.9 42.1 66.6 28.7 69.3C15.3 71.9 7.7 85.5 0 99L0 0Z" fill="#323232"></path></g></svg>