<svg id="visual" viewBox="0 0 960 540" width="960" height="540" xmlns="http://www.w3.org/2000/svg" xmlns:xlink="http://www.w3.org/1999/xlink" version="1.1"><rect x="0" y="0" width="960" height="540" fill="#111111"></rect><defs><linearGradient id="grad1_0" x1="43.8%" y1="100%" x2="100%" y2="0%"><stop offset="14.444444444444446%" stop-color="#111111" stop-opacity="1"></stop><stop offset="85.55555555555554%" stop-color="#111111" stop-opacity="1"></stop></linearGradient></defs><defs><linearGradient id="grad2_0" x1="0%" y1="100%" x2="56.3%" y2="0%"><stop offset="14.444444444444446%" stop-color="#111111" stop-opacity="1"></stop><stop offset="85.55555555555554%" stop-color="#111111" stop-opacity="1"></stop></linearGradient></defs><g transform="translate(960, 540)"><path d="M-351 0C-349.7 -31.4 -348.4 -62.8 -339 -90.8C-329.7 -118.9 -312.4 -143.5 -295.3 -170.5C-278.2 -197.5 -261.3 -226.9 -229.1 -229.1C-196.9 -231.3 -149.5 -206.2 -124.5 -215.6C-99.5 -225.1 -96.7 -269.2 -79.7 -297.5C-62.7 -325.8 -31.3 -338.4 0 -351L0 0Z" fill="#414141"></path></g><g transform="translate(0, 0)"><path d="M351 0C288.6 16.1 226.2 32.1 211.5 56.7C196.9 81.2 229.9 114.3 224.3 129.5C218.7 144.7 174.3 142.2 154.1 154.1C133.9 166.1 137.9 192.6 133 230.4C128.1 268.1 114.5 317.1 90.8 339C67.2 361 33.6 356 0 351L0 0Z" fill="#414141"></path></g></svg>